<svg xmlns="http://www.w3.org/2000/svg" viewBox="0 0 512 512" id="filter">
  <path d="M431.631,59H80.369a16.5,16.5,0,0,0-14.708,8.96,16.728,16.728,0,0,0,1.3,17.414L195.65,266.656c.043.061.087.122.132.182A36.774,36.774,0,0,1,203,288.655v147.8a16.437,16.437,0,0,0,16.435,16.535,16.935,16.935,0,0,0,6.479-1.3l72.314-27.573c6.48-1.977,10.781-8.091,10.781-15.453V288.656a36.772,36.772,0,0,1,7.214-21.817c.045-.061.089-.121.132-.182L445.041,85.369a16.727,16.727,0,0,0,1.3-17.409A16.5,16.5,0,0,0,431.631,59ZM300.1,254.993a56.912,56.912,0,0,0-11.1,33.664V406.234L223,431.4V288.656a56.914,56.914,0,0,0-11.1-33.664L86.964,79H425.035Z"></path>
</svg>
