<svg xmlns="http://www.w3.org/2000/svg" width="64" height="64" id="heart">
  <circle cx="31.5" cy="32.5" r="27.491" fill="#FFF" stroke="#000" stroke-width="2"></circle>
  <circle cx="32.26" cy="32.5" r="25.781" fill="#FF0000"></circle>
  <path fill="none" stroke="#000" stroke-linecap="round" d="M55.774 28.04c.334 1.349.584 2.792.726 4.333m-8.058-17.176a26.327 26.327 0 0 1 7.022 10.782m-46.714.954a28.987 28.987 0 0 0-.725 4.334m8.42-17.4a26.334 26.334 0 0 0-7.022 10.782"></path>
  <path fill="#FFF" stroke="#000" stroke-width="2" d="M31.375 22.867s5.942-5.348 11.291 0c1.864 1.863 2.021 5.494.236 8.862-3.34 6.301-11.18 12.781-11.18 12.781s-8.527-7.014-11.936-13.223c-2.073-3.775-.187-7.539.693-8.419 2.329-2.328 7.132-3.764 10.896-.001z"></path>
</svg>
